<?xml version="1.0" encoding="utf-8"?>
<!-- Generator: Adobe Illustrator 18.0.0, SVG Export Plug-In . SVG Version: 6.00 Build 0)  -->
<!DOCTYPE svg PUBLIC "-//W3C//DTD SVG 1.1//EN" "http://www.w3.org/Graphics/SVG/1.1/DTD/svg11.dtd">
<svg version="1.1" id="Warstwa_1" xmlns="http://www.w3.org/2000/svg" xmlns:xlink="http://www.w3.org/1999/xlink" x="0px" y="0px"
	 viewBox="0 0 35 39" enable-background="new 0 0 35 39" xml:space="preserve">
<g>
	<path d="M25.4,0H0v39h35V9.7L25.4,0z M25,3l7,7h-7V3z M33,37H2V2h21v10h10V37z M13,23.6c-0.2-0.2-0.5-0.4-0.8-0.4
		C11.9,23,11.5,23,10.9,23H9c-0.3,0-0.6,0.1-0.7,0.2C8.1,23.4,8,23.6,8,24V30c0,0.3,0.1,0.6,0.2,0.7C8.3,30.9,8.5,31,8.8,31
		c0.2,0,0.4-0.1,0.5-0.2c0.1-0.2,0.2-0.4,0.2-0.7v-2.2h1.4c0.9,0,1.6-0.2,2.1-0.6c0.5-0.4,0.7-1,0.7-1.8c0-0.4-0.1-0.7-0.2-1
		C13.4,24,13.3,23.8,13,23.6z M12,26.1c-0.1,0.2-0.3,0.3-0.6,0.4c-0.2,0.1-0.5,0.1-0.9,0.1h-1v-2.4h1c0.7,0,1.1,0.1,1.3,0.3
		c0.2,0.2,0.3,0.5,0.3,0.8C12.2,25.7,12.1,25.9,12,26.1z M22.9,23.4c-0.1,0.1-0.1,0.3-0.1,0.6v6c0,0.3,0.1,0.6,0.2,0.7
		c0.1,0.2,0.3,0.2,0.6,0.2c0.2,0,0.4-0.1,0.5-0.2c0.1-0.2,0.2-0.4,0.2-0.7v-2.6h2.5c0.2,0,0.4-0.1,0.5-0.2s0.2-0.3,0.2-0.4
		c0-0.2-0.1-0.3-0.2-0.4c-0.1-0.1-0.3-0.2-0.5-0.2h-2.5v-2h3c0.2,0,0.4-0.1,0.5-0.2c0.1-0.1,0.2-0.3,0.2-0.4c0-0.2-0.1-0.3-0.2-0.4
		c-0.1-0.1-0.3-0.2-0.5-0.2h-3.6c-0.2,0-0.4,0-0.5,0.1C23,23.2,22.9,23.3,22.9,23.4z M19.3,23.2c-0.4-0.1-0.8-0.2-1.3-0.2h-2
		c-0.3,0-0.6,0.1-0.7,0.2C15.1,23.4,15,23.6,15,24v5.8c0,0.3,0,0.5,0.1,0.6c0,0.2,0.1,0.3,0.3,0.4c0.1,0.1,0.3,0.1,0.6,0.1h2
		c0.3,0,0.7,0,0.9-0.1c0.3,0,0.5-0.1,0.8-0.2c0.2-0.1,0.5-0.3,0.7-0.5c0.3-0.2,0.5-0.5,0.6-0.8c0.2-0.3,0.3-0.7,0.4-1.1
		c0.1-0.4,0.1-0.8,0.1-1.3c0-1.4-0.4-2.5-1.2-3.2C20,23.4,19.6,23.3,19.3,23.2z M19.1,29.2c-0.1,0.1-0.2,0.2-0.4,0.2
		c-0.2,0.1-0.3,0.1-0.4,0.1c-0.1,0-0.3,0-0.6,0h-1.2v-5.3h1c0.5,0,0.9,0.1,1.2,0.2c0.3,0.1,0.6,0.4,0.8,0.7c0.2,0.4,0.3,1,0.3,1.7
		C19.9,28,19.6,28.8,19.1,29.2z"/>
</g>
</svg>
