<?xml version="1.0" encoding="utf-8"?>
<!-- Generator: Adobe Illustrator 18.0.0, SVG Export Plug-In . SVG Version: 6.00 Build 0)  -->
<!DOCTYPE svg PUBLIC "-//W3C//DTD SVG 1.1//EN" "http://www.w3.org/Graphics/SVG/1.1/DTD/svg11.dtd">
<svg version="1.1" id="Warstwa_1" xmlns="http://www.w3.org/2000/svg" xmlns:xlink="http://www.w3.org/1999/xlink" x="0px" y="0px"
	 viewBox="0 0 35 39" enable-background="new 0 0 35 39" xml:space="preserve">
<g>
	<path d="M25.4,0H0v39h35V9.7L25.4,0z M25,3l7,7h-7V3z M33,37H2V2h21v10h10V37z M19,28.1c0,0-0.1,0-0.1,0.1
		c-0.6-2.7-1.3-5.4-1.9-8.1h-2.8c-0.7,2.6-1.3,5.3-2,7.9c0,0-0.1,0-0.1,0.1c-0.5-2.6-1.1-5.3-1.6-7.9C9.6,20,8.8,20,8,20
		c0.9,4,1.8,7.9,2.7,11.9c0.8,0,1.7,0.1,2.5,0.1c0.8-2.9,1.5-5.9,2.3-8.8h0.1c0.7,2.9,1.5,5.7,2.2,8.6c0.3,0.4,2,0.3,2.5,0.1
		c0.9-4,1.9-7.9,2.8-11.9h-2.3C20.1,22.7,19.5,25.4,19,28.1z"/>
</g>
</svg>
